<svg width="488" height="174" viewBox="0 0 488 174" fill="none" xmlns="http://www.w3.org/2000/svg">
<path d="M190.84 68.42C196.78 68.42 201.58 70.31 205.24 74.09C208.9 77.81 210.73 83.03 210.73 89.75V119H198.13V91.46C198.13 87.5 197.14 84.47 195.16 82.37C193.18 80.21 190.48 79.13 187.06 79.13C183.58 79.13 180.82 80.21 178.78 82.37C176.8 84.47 175.81 87.5 175.81 91.46V119H163.21V69.14H175.81V75.35C177.49 73.19 179.62 71.51 182.2 70.31C184.84 69.05 187.72 68.42 190.84 68.42ZM219.472 93.89C219.472 88.85 220.462 84.38 222.442 80.48C224.482 76.58 227.212 73.58 230.632 71.48C234.112 69.38 237.982 68.33 242.242 68.33C245.962 68.33 249.202 69.08 251.962 70.58C254.782 72.08 257.032 73.97 258.712 76.25V69.14H271.402V119H258.712V111.71C257.092 114.05 254.842 116 251.962 117.56C249.142 119.06 245.872 119.81 242.152 119.81C237.952 119.81 234.112 118.73 230.632 116.57C227.212 114.41 224.482 111.38 222.442 107.48C220.462 103.52 219.472 98.99 219.472 93.89ZM258.712 94.07C258.712 91.01 258.112 88.4 256.912 86.24C255.712 84.02 254.092 82.34 252.052 81.2C250.012 80 247.822 79.4 245.482 79.4C243.142 79.4 240.982 79.97 239.002 81.11C237.022 82.25 235.402 83.93 234.142 86.15C232.942 88.31 232.342 90.89 232.342 93.89C232.342 96.89 232.942 99.53 234.142 101.81C235.402 104.03 237.022 105.74 239.002 106.94C241.042 108.14 243.202 108.74 245.482 108.74C247.822 108.74 250.012 108.17 252.052 107.03C254.092 105.83 255.712 104.15 256.912 101.99C258.112 99.77 258.712 97.13 258.712 94.07ZM304.498 107.39L317.098 69.14H330.508L312.058 119H296.758L278.398 69.14H291.898L304.498 107.39ZM350.185 76.43C351.805 74.03 354.025 72.08 356.845 70.58C359.725 69.08 362.995 68.33 366.655 68.33C370.915 68.33 374.755 69.38 378.175 71.48C381.655 73.58 384.385 76.58 386.365 80.48C388.405 84.32 389.425 88.79 389.425 93.89C389.425 98.99 388.405 103.52 386.365 107.48C384.385 111.38 381.655 114.41 378.175 116.57C374.755 118.73 370.915 119.81 366.655 119.81C362.935 119.81 359.665 119.09 356.845 117.65C354.085 116.15 351.865 114.23 350.185 111.89V119H337.585V52.4H350.185V76.43ZM376.555 93.89C376.555 90.89 375.925 88.31 374.665 86.15C373.465 83.93 371.845 82.25 369.805 81.11C367.825 79.97 365.665 79.4 363.325 79.4C361.045 79.4 358.885 80 356.845 81.2C354.865 82.34 353.245 84.02 351.985 86.24C350.785 88.46 350.185 91.07 350.185 94.07C350.185 97.07 350.785 99.68 351.985 101.9C353.245 104.12 354.865 105.83 356.845 107.03C358.885 108.17 361.045 108.74 363.325 108.74C365.665 108.74 367.825 108.14 369.805 106.94C371.845 105.74 373.465 104.03 374.665 101.81C375.925 99.59 376.555 96.95 376.555 93.89ZM444.931 92.99C444.931 94.79 444.811 96.41 444.571 97.85H408.121C408.421 101.45 409.681 104.27 411.901 106.31C414.121 108.35 416.851 109.37 420.091 109.37C424.771 109.37 428.101 107.36 430.081 103.34H443.671C442.231 108.14 439.471 112.1 435.391 115.22C431.311 118.28 426.301 119.81 420.361 119.81C415.561 119.81 411.241 118.76 407.401 116.66C403.621 114.5 400.651 111.47 398.491 107.57C396.391 103.67 395.341 99.17 395.341 94.07C395.341 88.91 396.391 84.38 398.491 80.48C400.591 76.58 403.531 73.58 407.311 71.48C411.091 69.38 415.441 68.33 420.361 68.33C425.101 68.33 429.331 69.35 433.051 71.39C436.831 73.43 439.741 76.34 441.781 80.12C443.881 83.84 444.931 88.13 444.931 92.99ZM431.881 89.39C431.821 86.15 430.651 83.57 428.371 81.65C426.091 79.67 423.301 78.68 420.001 78.68C416.881 78.68 414.241 79.64 412.081 81.56C409.981 83.42 408.691 86.03 408.211 89.39H431.881Z" fill="#2A2A2A"/>
<path d="M80.2154 44.493C83.0565 38.5023 91.5814 38.5023 94.4225 44.4931L134.855 129.747C137.892 136.151 131.57 142.988 124.948 140.462L90.1216 127.173C88.3166 126.485 86.3213 126.485 84.5163 127.173L49.6896 140.462C43.0675 142.988 36.7463 136.151 39.7834 129.747L80.2154 44.493Z" fill="#2A2A2A"/>
<path d="M94.2864 71.0705C94.2864 74.7922 91.2693 77.8093 87.5476 77.8093C83.8258 77.8093 80.8088 74.7922 80.8088 71.0705C80.8088 67.3488 83.8258 64.3317 87.5476 64.3317C91.2693 64.3317 94.2864 67.3488 94.2864 71.0705Z" fill="white"/>
<path d="M80.2154 44.493C83.0565 38.5023 91.5814 38.5023 94.4225 44.4931L134.855 129.747C137.892 136.151 131.57 142.988 124.948 140.462L90.1216 127.173C88.3166 126.485 86.3213 126.485 84.5163 127.173L49.6896 140.462C43.0675 142.988 36.7463 136.151 39.7834 129.747L80.2154 44.493Z" fill="#2A2A2A"/>
<path d="M94.2864 71.0705C94.2864 74.7922 91.2693 77.8093 87.5476 77.8093C83.8258 77.8093 80.8088 74.7922 80.8088 71.0705C80.8088 67.3488 83.8258 64.3317 87.5476 64.3317C91.2693 64.3317 94.2864 67.3488 94.2864 71.0705Z" fill="white"/>
</svg>
